<svg width="512" height="512" viewBox="0 0 512 512" fill="none" xmlns="http://www.w3.org/2000/svg">
<path d="M204.064 26.0051C198.272 26.0051 193.609 30.6678 193.609 36.4596V46.9142C193.609 52.706 198.272 57.3687 204.064 57.3687H308.65L308.813 125.16C308.834 133.788 315.826 140.777 324.454 140.801L392.245 140.979V438.954C392.245 447.913 385.522 454.636 376.563 454.636H136.109C127.15 454.636 120.427 447.913 120.427 438.954V423.272C120.427 417.48 115.765 412.818 109.973 412.818H99.5183C93.7264 412.818 89.0637 417.48 89.0637 423.272V438.954C89.0637 464.746 110.317 486 136.109 486H376.563C402.355 486 423.609 464.746 423.609 438.954V120.234C423.608 116.075 421.955 112.087 419.015 109.146L340.462 30.5943C337.522 27.6524 333.534 26.001 329.375 26L204.064 26.0051ZM89.0637 357.074C89.0637 362.866 93.7264 369.445 99.5183 369.445H109.973C115.765 369.445 120.427 362.866 120.427 357.074V141.005C120.427 135.213 115.765 130.55 109.973 130.55H99.5183C93.7264 130.55 89.0637 135.213 89.0637 141.005V357.074Z" fill="white"/>
<path d="M136.045 26C110.253 26 88.9999 47.253 88.9999 73.0454V99.1817C88.9999 104.974 93.6625 109.636 99.4544 109.636H109.909C115.701 109.636 120.363 104.974 120.363 99.1817V73.0454C120.363 64.0869 127.086 57.3636 136.045 57.3636H162.182C167.974 57.3636 172.636 52.7009 172.636 46.9091V36.4545C172.636 30.6627 167.974 26 162.182 26H136.045Z" fill="white"/>
<path d="M351.693 294.795L298.445 241.547L181.299 358.693M181.299 167H330.394C342.158 167 351.694 176.536 351.694 188.299V337.394C351.694 349.158 342.158 358.694 330.394 358.694H181.299C169.536 358.694 160 349.158 160 337.394V188.299C160 176.536 169.536 167 181.299 167ZM234.547 225.58C234.547 234.403 227.395 241.555 218.573 241.555C209.75 241.555 202.598 234.403 202.598 225.58C202.598 216.758 209.75 209.606 218.573 209.606C227.395 209.606 234.547 216.758 234.547 225.58Z" stroke="white" stroke-width="14" stroke-linecap="round" stroke-linejoin="round"/>
</svg>
