<svg width="512" height="512" viewBox="0 0 512 512" fill="none" xmlns="http://www.w3.org/2000/svg">
<g clip-path="url(#clip0_2594_550)">
<rect width="512" height="512" fill="#1E75EB"/>
<g filter="url(#filter0_d_2594_550)">
<path d="M-6.5582 -4.58486L276.035 -1.95042L-62.4802 272.432L-6.5582 -4.58486Z" fill="#0054C6"/>
</g>
<path d="M74.3697 60.1602V91.1182H49.4902L74.3697 60.1602Z" fill="white"/>
<path d="M74.3697 48.9922C74.3697 52.4039 73.0591 55.6759 70.7262 58.0883C68.3933 60.5007 65.2292 61.856 61.93 61.856C58.6308 61.856 55.4667 60.5007 53.1338 58.0883C50.8008 55.6759 49.4902 52.4039 49.4902 48.9922H74.3697V48.9922Z" fill="white"/>
<path d="M78.469 91.1177C78.469 87.706 79.7871 84.4341 82.1332 82.0216C84.4794 79.6092 87.6615 78.2539 90.9794 78.2539C94.2974 78.2539 97.4795 79.6092 99.8256 82.0216C102.172 84.4341 103.49 87.706 103.49 91.1177H78.469Z" fill="white"/>
<path d="M78.469 79.9502V48.9922H103.49L78.469 79.9502Z" fill="white"/>
</g>
<path d="M235.249 132.004C231.008 132.004 227.594 135.418 227.594 139.659V147.313C227.594 151.554 231.008 154.968 235.249 154.968H311.827L311.947 204.605C311.962 210.922 317.081 216.039 323.399 216.057L373.035 216.188V434.364C373.035 440.924 368.113 445.847 361.553 445.847H185.493C178.933 445.847 174.011 440.924 174.011 434.364V422.882C174.011 418.642 170.597 415.227 166.356 415.227H158.701C154.46 415.227 151.046 418.642 151.046 422.882V434.364C151.046 453.25 166.608 468.811 185.493 468.811H361.553C380.438 468.811 396 453.25 396 434.364V200.998C395.999 197.953 394.789 195.033 392.636 192.88L335.12 135.364C332.967 133.21 330.047 132.001 327.002 132L235.249 132.004ZM151.046 374.412C151.046 378.653 154.46 383.47 158.701 383.47H166.356C170.597 383.47 174.011 378.653 174.011 374.412V216.207C174.011 211.966 170.597 208.552 166.356 208.552H158.701C154.46 208.552 151.046 211.966 151.046 216.207V374.412Z" fill="white"/>
<path d="M185.446 132C166.562 132 151 147.561 151 166.447V185.584C151 189.824 154.414 193.238 158.655 193.238H166.309C170.55 193.238 173.964 189.824 173.964 185.584V166.447C173.964 159.887 178.887 154.964 185.446 154.964H204.583C208.824 154.964 212.238 151.55 212.238 147.31V139.655C212.238 135.414 208.824 132 204.583 132H185.446Z" fill="white"/>
<path d="M320 249H229C221.82 249 216 254.82 216 262V353C216 360.18 221.82 366 229 366H320C327.18 366 333 360.18 333 353V262C333 254.82 327.18 249 320 249Z" stroke="white" stroke-width="11" stroke-linecap="round" stroke-linejoin="round"/>
<path d="M251.75 294.498C257.135 294.498 261.5 290.133 261.5 284.748C261.5 279.363 257.135 274.998 251.75 274.998C246.365 274.998 242 279.363 242 284.748C242 290.133 246.365 294.498 251.75 294.498Z" stroke="white" stroke-width="11" stroke-linecap="round" stroke-linejoin="round"/>
<path d="M333 327L300.5 294.5L229 366" stroke="white" stroke-width="11" stroke-linecap="round" stroke-linejoin="round"/>
<defs>
<filter id="filter0_d_2594_550" x="-87.4802" y="-29.584" width="388.515" height="327.016" filterUnits="userSpaceOnUse" color-interpolation-filters="sRGB">
<feFlood flood-opacity="0" result="BackgroundImageFix"/>
<feColorMatrix in="SourceAlpha" type="matrix" values="0 0 0 0 0 0 0 0 0 0 0 0 0 0 0 0 0 0 127 0" result="hardAlpha"/>
<feOffset/>
<feGaussianBlur stdDeviation="12.5"/>
<feColorMatrix type="matrix" values="0 0 0 0 0 0 0 0 0 0 0 0 0 0 0 0 0 0 0.25 0"/>
<feBlend mode="normal" in2="BackgroundImageFix" result="effect1_dropShadow_2594_550"/>
<feBlend mode="normal" in="SourceGraphic" in2="effect1_dropShadow_2594_550" result="shape"/>
</filter>
<clipPath id="clip0_2594_550">
<rect width="512" height="512" fill="white"/>
</clipPath>
</defs>
</svg>
